<?xml version="1.0" encoding="utf-8"?>
<!-- Generator: Adobe Illustrator 24.1.2, SVG Export Plug-In . SVG Version: 6.00 Build 0)  -->
<svg version="1.1" xmlns="http://www.w3.org/2000/svg" xmlns:xlink="http://www.w3.org/1999/xlink" x="0px" y="0px"
	 viewBox="0 0 427.4 84.8" style="enable-background:new 0 0 427.4 84.8;" xml:space="preserve">
<style type="text/css">
	.st0{display:none;}
	.st1{fill:#FFFFFF;}
	.st2{display:none;fill:#FFFFFF;}
	.st3{fill:#F6433E;}
</style>
<g id="Слой_2" class="st0">
	
		<image style="display:inline;overflow:visible;" width="1080" height="1080" xlink:href="3CC97B8A.jpg"  transform="matrix(0.3747 0 0 0.3747 -68.1403 -164.7018)">
	</image>
</g>
<g id="Слой_1">
	<g>
		<path class="st1" d="M45,35c-0.8-4.7-1.7-7.8-4.1-10.9c-5.8-7.4-18.7-11.8-28.5-6.1c-7,4-9.3,11.3-9.9,13.5l-0.2,1.1
			c-0.1,0.6,0.3,1.1,0.9,1.1c3.3,0.1,6.9,0.3,10.2,0.4c0.7,0,1.2-0.4,1.4-1.1c0.2-0.9,0.7-2,1.6-3c2.7-3,6.8-2.4,7.2-2.3
			c0.8,0,4.3-0.1,7,2.6c2.4,2.3,3.4,5.9,2.6,9.3c-0.1,0.5-0.7,0.9-1.2,0.7c-11.7-4-23.1-1.8-28.5,5.3c-1.2,1.6-3.2,4.7-3.5,9.9
			c0.1,6,2.4,9.3,3.5,10.7c5.7,6.9,18.1,8.5,30.2,2.6c0.2-0.1,0.5,0,0.6,0.3c0.3,0.7,0.5,1.4,0.8,2.2c3.8-0.3,7.5-0.7,11.3-1
			C47.7,54.8,46.5,43,45,35z M29.5,55.9c-0.7,0.7-1.7,1.5-3,2.2c-4.4,2.4-10.4,2.2-13.1-0.4c-0.4-0.3-1.1-1.1-1.2-2.2
			c-0.1-1.5,1.2-2.6,1.8-3.1c3-2.6,9.1-3.8,13.2-0.7c1.1,0.8,1.9,1.9,2.5,2.8C30,55,29.9,55.6,29.5,55.9z"/>
		<path class="st1" d="M339.9,35c-0.8-4.7-1.7-7.8-4.1-10.9c-5.8-7.4-18.7-11.8-28.5-6.1c-7,4-9.3,11.3-9.9,13.5l-0.2,1.1
			c-0.1,0.6,0.3,1.1,0.9,1.1c3.3,0.1,6.9,0.3,10.2,0.4c0.7,0,1.2-0.4,1.4-1.1c0.2-0.9,0.7-2,1.6-3c2.7-3,6.8-2.4,7.2-2.3
			c0.8,0,4.3-0.1,7,2.6c2.4,2.3,3.4,5.9,2.6,9.3c-0.1,0.5-0.7,0.9-1.2,0.7c-11.7-4-23.1-1.8-28.5,5.3c-1.2,1.6-3.2,4.7-3.5,9.9
			c0.1,6,2.4,9.3,3.5,10.7c5.7,6.9,18.1,8.5,30.2,2.6c0.2-0.1,0.5,0,0.6,0.3c0.3,0.7,0.5,1.4,0.8,2.2c3.8-0.3,7.5-0.7,11.3-1
			C342.6,54.8,341.3,43,339.9,35z M324.4,55.9c-0.7,0.7-1.7,1.5-3,2.2c-4.4,2.4-10.4,2.2-13.1-0.4c-0.4-0.3-1.1-1.1-1.2-2.2
			c-0.1-1.5,1.2-2.6,1.8-3.1c3-2.6,9.1-3.8,13.2-0.7c1.1,0.8,1.9,1.9,2.5,2.8C324.8,55,324.7,55.6,324.4,55.9z"/>
		<path class="st1" d="M53.8,17.8v51.6c0,0.7,0.6,1.3,1.3,1.3h9.6c0.8,0,1.5-0.6,1.6-1.4C67.6,58.2,71.6,29,80.9,28
			c0.4,0,0.8,0,1.3,0c0.4,0,0.9,0.1,1.4,0.5c1.7,1.3,1.4,4.5,1.3,5.5c-0.4,4-0.4,17.5-0.4,35.8c0,0.4,0.4,0.8,0.8,0.8
			c3.6,0,7,0,10.5,0c0.4,0,0.8-0.4,0.8-0.8c0.1-19.6-0.1-34.3-0.3-40c0-0.9-0.1-2.9-1.1-5.2c-2.1-4.9-6.5-7.1-7.1-7.5
			c-4-2-7.8-1.5-9.5-1.2c-5.3,1-8.5,4.5-9.8,6.3c-0.4,0.6-1.1,0.9-1.9,0.9l0,0c-0.5,0-0.9-0.4-0.9-1v-4.2c0-0.8-0.7-1.5-1.5-1.5H55
			C54.4,16.6,53.8,17.1,53.8,17.8z"/>
		<g>
			
				<ellipse transform="matrix(0.9871 -0.1602 0.1602 0.9871 -2.1305 17.7596)" class="st1" cx="109.1" cy="22.1" rx="6.6" ry="6.6"/>
			<path class="st1" d="M113.9,32.6h-9.5c-0.8,0-1.4,0.6-1.4,1.4v35.3c0,0.8,0.6,1.4,1.4,1.4h9.5c0.8,0,1.4-0.6,1.4-1.4V34
				C115.3,33.3,114.7,32.6,113.9,32.6z"/>
		</g>
		<path class="st1" d="M232.3,17H243c0.5,0,0.9,0.4,0.9,0.9v1.9h0.9c0.6-0.7,3.4-3.9,7.9-4.2c4.6-0.3,9.2,2.7,11.3,7.5h0.7
			c0.3-0.2,0.5-0.3,0.8-0.5c0.9-1.6,4.3-6.5,10.3-6.8c5.3-0.3,8.9,3.2,9.3,3.7c3.5,3.6,3.8,8.5,3.9,11.3c0.6,15.9,0.3,32.7,0.1,38.4
			c0,0.5-0.4,0.9-0.9,0.9H278c-0.5,0-0.9-0.4-0.9-0.9L277,30.3c0-0.6-0.5-1-1.1-0.9c-0.2,0-0.5,0.1-0.7,0.2c-1,0.5-1.5,1.4-1.7,1.8
			c-4,7.7-5.8,27.5-5.8,27.5c-0.2,2.6-0.6,6-1.2,10.8c-0.1,0.5-0.5,0.8-0.9,0.8c-6.2,0.1-3.7,0.2-10.2,0c-0.5,0-0.9-0.4-0.9-0.9
			c0-3,0-6-0.1-9.1c0-5.9-0.1-11.8-0.1-17.8c0-4.2-0.1-8.4-0.1-12.6c0-0.2,0-0.3-0.1-0.4c-0.1-0.1-0.2-0.1-0.3-0.2
			c-0.7-0.2-1.5,0.1-2.1,0.6s-0.9,1.2-1.3,1.8c-2,3.9-2.7,8.1-3.6,12.4c-0.9,4.5-1.5,9-2.1,13.6c-0.6,4.7-1,8.7-1.2,11.5
			c0,0.5-0.4,0.9-0.9,0.9h-10.4c-0.5,0-0.9-0.4-0.9-0.9V18.1C231.4,17.5,231.8,17,232.3,17z"/>
		<path class="st1" d="M350,17.6h10.2c0.6,0,1.1,0.5,1.1,1.1v10.5c0,0.6,0.5,1.1,1.1,1.1h13.4c0.6,0,1.1,0.5,1.1,1.1v10.2
			c0,0.6-0.5,1.1-1.1,1.1H362c-0.6,0-1.1,0.5-1.1,1.1c0,1.9,0,3.7,0.2,5.6c0.2,1.8,0.3,3.7,0.9,5.4c0.3,1,0.9,2,1.7,2.7
			c1.8,1.5,4.6,1.4,6.9,1.5c2,0.1,4.1,0,6.1-0.1c0.6,0,1.1,0.5,1.1,1.1v10c0,0.6-0.4,1-1,1.1c-3.9,0.3-7.8,0.1-11.6-0.6
			c-2.4-0.5-4.7-1-6.9-2.3c-2.1-1.2-4-2.9-5.4-5c-0.3-0.4-0.6-0.9-0.9-1.4c-2.8-5.1-3-11.3-3.3-16.9c0-0.4,0-0.8-0.1-1.2
			c0-0.2,0-0.4,0-0.7c-0.2-4.1-0.2-8.1-0.2-12.2c0-3.2,0.1-6.4,0.2-9.6c0-0.8,0.1-1.6,0.1-2.4C348.9,18.1,349.4,17.6,350,17.6z"/>
		<path class="st1" d="M419.7,18.5c-3.1-2.2-6.9-3.3-10.7-3.7c-5.4-0.5-10.9,0.5-15.5,3.3c-7.7,4.7-9.6,13.2-9.9,21.6
			c-0.2,4.1-0.2,8.2,0.6,12.3c1,5.3,3.5,10.2,7.7,13.7c8.6,7.2,22.8,7.1,34.3-1c0.5-0.4,0.6-1.2,0.2-1.7l-6-7.6
			c-0.4-0.5-1-0.6-1.5-0.3c-7.8,4.8-16,4.6-20,0.5c-0.7-0.7-2.1-2.4-2.6-5.4c-0.1-0.7,0.4-1.4,1.2-1.4h28.6c0.6,0,1.2-0.5,1.2-1.2
			c0-4.8,0.3-9.6-0.2-14.4c-0.4-4.4-1.7-8.9-4.6-12.2C421.6,20,420.7,19.2,419.7,18.5z M414.3,36.5H397c-0.5,0-0.9-0.4-0.9-1
			c0.2-1.3,0.6-3.1,1.9-4.8c3.1-4.2,9.9-5.5,14.4-2.8c2.9,1.8,3.2,5.5,3.1,7.4C415.5,36,414.9,36.5,414.3,36.5z"/>
		<path class="st2" d="M179.7,42.6c0.5,0,0.9,0.4,0.8,0.8c-0.2,1.9-1.3,3.7-2.9,4.8c-1.8,1.3-4.3,1.5-6.4,0.7
			c-1.9-0.8-3.4-2.4-4.1-4.3s-0.8-4-0.2-6c0.7-2.6,2.4-4.8,4.4-6.6c2.2-1.9,4.9-3.4,7.7-3.8c4.9-0.7,10.1,1.8,12.9,5.9
			c2.8,4.1,3.5,9.5,2.1,14.3c-1.9,6.9-7.8,12.4-14.7,14.2c-6.2,1.7-13,0.5-18.4-2.8s-8-9-8.4-15.2c-0.5-9.4,3.4-19,10.3-25.4
			c11-10.2,28.5-11.5,40.4-2.3c7.6,5.8,12.2,14.9,12.5,24.4c0,0.1,0,0.3,0,0.4c0.2,10.4-3.7,20.8-10.5,28.7
			c-5,5.9-12.1,10.6-19.7,12.8c-7.7,2.2-16.1,2.1-23.9,0.2c-4-1-7.8-2.2-11.3-4.5c-3.1-2-5.9-4.4-8.3-7.2c-5-5.5-8.5-12.3-10.1-19.6
			c-3.4-16.1,3-33.1,15.8-43.2c1.1-0.9,2.3-1.7,3.5-2.5c5.7-3.8,12.3-5.5,19.1-6.2c7.4-0.8,14.7,1,21.7,3.1c-7.8-0.8-15.7,0-23,2.8
			c-13.7,5.3-23.8,17.8-23.9,32.7c0,4.4,0.5,8.8,1.9,13c1.9,5.7,5.5,11,10.6,14.3c3.8,2.5,8.3,3.8,12.9,4.3c7.8,0.9,14.8-0.8,20.7-6
			c7.6-6.6,12.7-18,9.9-27.8c-1.7-5.9-5.7-11-11.1-13.8s-13.2-2.5-18.8,0c-6.5,2.9-11.1,9.5-12.1,16.5c-0.4,3.1-0.2,6.4,1.3,9.2
			c1.2,2.2,3.4,4.9,5.6,6.1c5.2,2.9,12.1,2.2,16.8-1.5c1.9-1.5,3.9-4.4,4.6-6.7c0.9-2.9,0.3-6.2-1.5-8.7c-1.1-1.5-3.7-2.8-5.7-2.7
			c-2.2,0.1-3.9,1.7-5.4,3.4c-0.4,0.5-0.8,1-1,1.6c-1.2,2.9,2,2.6,2,2.6L179.7,42.6z"/>
	</g>
	<g>
		<g>
			
				<ellipse transform="matrix(0.9239 -0.3827 0.3827 0.9239 -3.1614 70.1398)" class="st3" cx="174.7" cy="43" rx="39.4" ry="39.4"/>
			<g>
				<path class="st1" d="M174.7,6.7c20.1,0,36.4,16.3,36.4,36.4s-16.3,36.4-36.4,36.4S138.4,63.1,138.4,43S154.7,6.7,174.7,6.7
					 M174.7,0.7c-23.4,0-42.4,19-42.4,42.4c0,23.4,19,42.4,42.4,42.4c23.4,0,42.4-19,42.4-42.4C217.1,19.6,198.1,0.7,174.7,0.7
					L174.7,0.7z"/>
			</g>
		</g>
		<g>
			<path class="st1" d="M198.1,32.3c-6.7-5.5-13.2-10-19.1-13.8c0.7-5.8,1.4-11.6,2.1-17.4c-4.1,3.7-8.3,7.9-12.5,12.6
				c-7.7,8.6-13.7,17.1-18.3,24.6c-5.7-0.8-11.5-1.5-17.2-2.3c4.7,4.8,9.9,9.8,15.8,14.9c7.4,6.4,14.7,11.9,21.4,16.5
				c-0.8,5.8-1.5,11.6-2.3,17.3c5.4-5.4,11.1-11.6,16.9-18.6c5.4-6.6,10-12.9,14-18.9c5.9,0.7,11.9,1.5,17.8,2.2
				C211.5,44.1,205.3,38.2,198.1,32.3z M174.4,52.4c-5.3,0-9.6-4.3-9.6-9.6s4.3-9.6,9.6-9.6c5.3,0,9.6,4.3,9.6,9.6
				S179.7,52.4,174.4,52.4z"/>
			<path class="st1" d="M174.2,39.6c-1.9,0-3.4,1.5-3.4,3.4s1.5,3.4,3.4,3.4c1.9,0,3.4-1.5,3.4-3.4S176,39.6,174.2,39.6z"/>
		</g>
	</g>
</g>
</svg>
