<svg width="128" height="128" viewBox="0 0 128 128" fill="none" xmlns="http://www.w3.org/2000/svg">
<path d="M30.3179 62.4354C30.1582 61.4993 29.9785 60.8819 29.4993 60.2645C28.3413 58.7907 25.7657 57.9144 23.8091 59.0496C22.4115 59.8463 21.9523 61.3002 21.8325 61.7383L21.7925 61.9574C21.7726 62.0769 21.8524 62.1765 21.9722 62.1765C22.6311 62.1964 23.3499 62.2362 24.0087 62.2561C24.1485 62.2561 24.2483 62.1765 24.2882 62.0371C24.3282 61.8578 24.428 61.6387 24.6077 61.4396C25.1468 60.8421 25.9654 60.9616 26.0452 60.9815C26.205 60.9815 26.9038 60.9616 27.4428 61.4993C27.922 61.9574 28.1217 62.6744 27.9619 63.3515C27.942 63.4511 27.8222 63.5308 27.7223 63.4909C25.3864 62.6943 23.1103 63.1324 22.0321 64.5465C21.7925 64.8651 21.3932 65.4825 21.3333 66.5182C21.3533 67.7132 21.8125 68.3704 22.0321 68.6492C23.1702 70.0234 25.6459 70.3421 28.0618 69.167C28.1017 69.1471 28.1616 69.167 28.1816 69.2268C28.2415 69.3662 28.2814 69.5056 28.3413 69.6649C29.1 69.6052 29.8387 69.5255 30.5974 69.4658C30.857 66.3788 30.6174 64.0287 30.3179 62.4354ZM27.2232 66.5979C27.0834 66.7373 26.8838 66.8966 26.6242 67.036C25.7457 67.514 24.5478 67.4742 24.0087 66.9563C23.9289 66.8966 23.7891 66.7373 23.7691 66.5182C23.7492 66.2194 24.0087 66.0004 24.1285 65.9008C24.7275 65.383 25.9454 65.144 26.764 65.7614C26.9836 65.9207 27.1433 66.1398 27.2631 66.319C27.323 66.4186 27.3031 66.5381 27.2232 66.5979Z" fill="#EB4242"/>
<path d="M89.1967 62.4354C89.037 61.4993 88.8573 60.8819 88.3781 60.2645C87.2201 58.7907 84.6445 57.9144 82.6879 59.0496C81.2903 59.8463 80.8311 61.3002 80.7113 61.7383L80.6713 61.9574C80.6514 62.0769 80.7312 62.1765 80.851 62.1765C81.5099 62.1964 82.2287 62.2362 82.8875 62.2561C83.0273 62.2561 83.1271 62.1765 83.1671 62.0371C83.207 61.8578 83.3068 61.6387 83.4865 61.4396C84.0256 60.8421 84.8442 60.9616 84.924 60.9815C85.0838 60.9815 85.7826 60.9616 86.3216 61.4993C86.8008 61.9574 87.0005 62.6744 86.8407 63.3515C86.8208 63.4511 86.701 63.5308 86.6011 63.4909C84.2652 62.6943 81.9891 63.1324 80.9109 64.5465C80.6713 64.8651 80.272 65.4825 80.2121 66.5182C80.2321 67.7132 80.6913 68.3704 80.9109 68.6492C82.049 70.0234 84.5247 70.3421 86.9406 69.167C86.9805 69.1471 87.0404 69.167 87.0604 69.2268C87.1203 69.3662 87.1602 69.5056 87.2201 69.6649C87.9788 69.6052 88.7175 69.5255 89.4762 69.4658C89.7358 66.3788 89.4762 64.0287 89.1967 62.4354ZM86.102 66.5979C85.9622 66.7373 85.7626 66.8966 85.503 67.036C84.6245 67.514 83.4266 67.4742 82.8875 66.9563C82.8077 66.8966 82.6679 66.7373 82.6479 66.5182C82.628 66.2194 82.8875 66.0004 83.0073 65.9008C83.6063 65.383 84.8242 65.144 85.6428 65.7614C85.8624 65.9207 86.0221 66.1398 86.1419 66.319C86.1819 66.4186 86.1619 66.5381 86.102 66.5979Z" fill="#EB4242"/>
<path d="M32.0749 59.0098V69.2865C32.0749 69.4259 32.1947 69.5454 32.3344 69.5454H34.2511C34.4109 69.5454 34.5506 69.4259 34.5706 69.2666C34.8301 67.0559 35.6288 61.2404 37.4856 61.0412C37.5654 61.0412 37.6453 61.0412 37.7451 61.0412C37.825 61.0412 37.9248 61.0612 38.0246 61.1408C38.3641 61.3997 38.3042 62.0371 38.2842 62.2362C38.2043 63.0329 38.2043 65.7215 38.2043 69.3662C38.2043 69.4459 38.2842 69.5255 38.3641 69.5255C39.0828 69.5255 39.7617 69.5255 40.4605 69.5255C40.5403 69.5255 40.6202 69.4459 40.6202 69.3662C40.6402 65.4626 40.6002 62.535 40.5603 61.3997C40.5603 61.2205 40.5403 60.8222 40.3407 60.3641C39.9214 59.3882 39.0429 58.9501 38.9231 58.8704C38.1245 58.4721 37.3658 58.5716 37.0264 58.6314C35.9682 58.8306 35.3293 59.5276 35.0697 59.8861C34.9899 60.0056 34.8501 60.0654 34.6904 60.0654C34.5906 60.0654 34.5107 59.9857 34.5107 59.8662V59.0297C34.5107 58.8704 34.3709 58.731 34.2112 58.731H32.3145C32.1947 58.7708 32.0749 58.8704 32.0749 59.0098Z" fill="#EB4242"/>
<path d="M43.3275 61.163C44.0459 61.0467 44.5337 60.3715 44.4171 59.6549C44.3005 58.9384 43.6237 58.4517 42.9053 58.568C42.1869 58.6843 41.6991 59.3595 41.8157 60.0761C41.9322 60.7927 42.6091 61.2793 43.3275 61.163Z" fill="#EB4242"/>
<path d="M44.0742 61.9574H42.1775C42.0178 61.9574 41.898 62.0769 41.898 62.2362V69.2666C41.898 69.426 42.0178 69.5454 42.1775 69.5454H44.0742C44.234 69.5454 44.3538 69.426 44.3538 69.2666V62.2362C44.3538 62.0968 44.234 61.9574 44.0742 61.9574Z" fill="#EB4242"/>
<path d="M67.7136 58.8505H69.8499C69.9498 58.8505 70.0296 58.9301 70.0296 59.0297V59.4081H70.2093C70.3291 59.2687 70.8882 58.6314 71.7866 58.5716C72.705 58.5119 73.6235 59.1094 74.0427 60.0653H74.1825C74.2424 60.0255 74.2823 60.0056 74.3422 59.9658C74.5219 59.6471 75.2007 58.6712 76.3987 58.6115C77.4569 58.5517 78.1756 59.2488 78.2555 59.3484C78.9543 60.0653 79.0142 61.0412 79.0342 61.5989C79.154 64.7656 79.0941 68.1115 79.0541 69.2467C79.0541 69.3463 78.9743 69.4259 78.8744 69.4259H76.8379C76.7381 69.4259 76.6582 69.3463 76.6582 69.2467L76.6383 61.4993C76.6383 61.3798 76.5384 61.3001 76.4187 61.3201C76.3787 61.3201 76.3188 61.34 76.2789 61.3599C76.0792 61.4595 75.9794 61.6387 75.9395 61.7184C75.1409 63.2519 74.7815 67.1953 74.7815 67.1953C74.7415 67.7131 74.6617 68.3903 74.5419 69.3463C74.5219 69.4459 74.4421 69.5056 74.3622 69.5056C73.1243 69.5255 73.6235 69.5454 72.3257 69.5056C72.2259 69.5056 72.146 69.4259 72.146 69.3264C72.146 68.7289 72.146 68.1314 72.126 67.514C72.126 66.3389 72.1061 65.1639 72.1061 63.9689C72.1061 63.1324 72.0861 62.296 72.0861 61.4595C72.0861 61.4196 72.0861 61.3997 72.0661 61.3798C72.0462 61.3599 72.0262 61.3599 72.0062 61.34C71.8665 61.3001 71.7068 61.3599 71.587 61.4595C71.4672 61.5591 71.4073 61.6985 71.3274 61.818C70.9281 62.5947 70.7883 63.4312 70.6086 64.2876C70.429 65.1838 70.3092 66.08 70.1894 66.9962C70.0696 67.9322 69.9897 68.7289 69.9498 69.2865C69.9498 69.3861 69.8699 69.4658 69.7701 69.4658H67.6937C67.5938 69.4658 67.514 69.3861 67.514 69.2865V59.0695C67.5339 58.95 67.6138 58.8505 67.7136 58.8505Z" fill="#EB4242"/>
<path d="M91.2132 58.97H93.2497C93.3695 58.97 93.4693 59.0696 93.4693 59.189V61.2802C93.4693 61.3997 93.5692 61.4993 93.689 61.4993H96.3644C96.4842 61.4993 96.584 61.5989 96.584 61.7184V63.7498C96.584 63.8693 96.4842 63.9689 96.3644 63.9689H93.6091C93.4893 63.9689 93.3895 64.0685 93.3895 64.188C93.3895 64.5664 93.3895 64.9249 93.4294 65.3033C93.4693 65.6618 93.4893 66.0402 93.6091 66.3788C93.669 66.5779 93.7888 66.7771 93.9485 66.9165C94.3079 67.2153 94.8669 67.1953 95.3262 67.2153C95.7255 67.2352 96.1447 67.2153 96.5441 67.1953C96.6639 67.1953 96.7637 67.2949 96.7637 67.4144V69.406C96.7637 69.5255 96.6838 69.6052 96.564 69.6251C95.7854 69.6849 95.0067 69.645 94.248 69.5056C93.7688 69.406 93.3096 69.3064 92.8704 69.0475C92.4511 68.8085 92.0717 68.47 91.7922 68.0517C91.7323 67.9721 91.6724 67.8725 91.6125 67.7729C91.0535 66.7572 91.0136 65.5224 90.9537 64.4071C90.9537 64.3274 90.9537 64.2477 90.9337 64.1681C90.9337 64.1283 90.9337 64.0884 90.9337 64.0287C90.8938 63.2121 90.8938 62.4155 90.8938 61.5989C90.8938 60.9616 90.9137 60.3243 90.9337 59.687C90.9337 59.5276 90.9537 59.3683 90.9537 59.209C90.9936 59.0696 91.0934 58.97 91.2132 58.97Z" fill="#EB4242"/>
<path d="M105.129 59.1492C104.51 58.7111 103.752 58.492 102.993 58.4123C101.915 58.3127 100.817 58.5119 99.8983 59.0696C98.3609 60.0056 97.9816 61.6985 97.9217 63.3714C97.8818 64.188 97.8818 65.0046 98.0415 65.8211C98.2411 66.8767 98.7403 67.8526 99.5788 68.5496C101.296 69.9836 104.131 69.9637 106.427 68.3505C106.527 68.2708 106.547 68.1115 106.467 68.0119L105.269 66.4983C105.189 66.3987 105.069 66.3788 104.97 66.4385C103.412 67.3945 101.775 67.3547 100.976 66.5381C100.837 66.3987 100.557 66.0601 100.457 65.4626C100.437 65.3232 100.537 65.1838 100.697 65.1838H106.407C106.527 65.1838 106.647 65.0842 106.647 64.9448C106.647 63.9888 106.707 63.0329 106.607 62.0769C106.527 61.2006 106.267 60.3044 105.688 59.6471C105.509 59.448 105.329 59.2886 105.129 59.1492ZM104.051 62.7341H100.597C100.497 62.7341 100.417 62.6545 100.417 62.535C100.457 62.2761 100.537 61.9176 100.797 61.579C101.416 60.7425 102.773 60.4836 103.672 61.0213C104.251 61.3798 104.311 62.1167 104.291 62.4951C104.291 62.6345 104.171 62.7341 104.051 62.7341Z" fill="#EB4242"/>
<path d="M59.2239 71.2804C63.2378 69.6219 65.1439 65.0315 63.4812 61.0276C61.8186 57.0236 57.2168 55.1223 53.2029 56.7808C49.189 58.4393 47.2829 63.0297 48.9455 67.0336C50.6082 71.0376 55.21 72.939 59.2239 71.2804Z" fill="#F6433E"/>
<path d="M56.2134 56.7991C60.2265 56.7991 63.4809 60.0454 63.4809 64.0486C63.4809 68.0517 60.2265 71.298 56.2134 71.298C52.2003 71.298 48.9658 68.0318 48.9658 64.0287C48.9658 60.0255 52.2202 56.7991 56.2134 56.7991ZM56.2134 55.6041C51.5414 55.6041 47.7479 59.3882 47.7479 64.0486C47.7479 68.7089 51.5414 72.493 56.2134 72.493C60.8853 72.493 64.6788 68.7089 64.6788 64.0486C64.6788 59.3683 60.8853 55.6041 56.2134 55.6041Z" fill="#D3D41A"/>
<path d="M60.8853 61.8976C59.5476 60.8023 58.2499 59.906 57.0719 59.1492C57.2117 57.9941 57.3514 56.8389 57.4912 55.6838C56.6726 56.4207 55.834 57.2572 54.9955 58.1932C53.4581 59.906 52.2602 61.5989 51.3418 63.0926C50.2037 62.9333 49.0457 62.7939 47.9077 62.6345C48.846 63.5905 49.8843 64.5863 51.0622 65.602C52.5397 66.8767 53.9972 67.9721 55.3349 68.8882C55.1752 70.0433 55.0354 71.1985 54.8757 72.3337C55.9538 71.2582 57.0919 70.0234 58.2499 68.6293C59.328 67.3148 60.2464 66.0601 61.0451 64.8651C62.223 65.0046 63.421 65.1639 64.599 65.3033C63.5607 64.2477 62.3229 63.0727 60.8853 61.8976ZM56.1535 65.9008C55.0953 65.9008 54.2368 65.0444 54.2368 63.9888C54.2368 62.9333 55.0953 62.0769 56.1535 62.0769C57.2117 62.0769 58.0702 62.9333 58.0702 63.9888C58.0702 65.0444 57.2117 65.9008 56.1535 65.9008Z" fill="#D3D41A"/>
<path d="M56.1136 63.3515C55.7342 63.3515 55.4347 63.6502 55.4347 64.0287C55.4347 64.4071 55.7342 64.7058 56.1136 64.7058C56.4929 64.7058 56.7924 64.4071 56.7924 64.0287C56.7924 63.6502 56.4729 63.3515 56.1136 63.3515Z" fill="#D3D41A"/>
</svg>
