<svg width="144" height="144" viewBox="0 0 144 144" fill="none" xmlns="http://www.w3.org/2000/svg">
<g clip-path="url(#clip0_2_12)">
<path d="M94.1668 125.34C123.599 113.149 137.575 79.4062 125.384 49.974C113.192 20.5418 79.4497 6.56542 50.0175 18.7569C20.5854 30.9484 6.60898 64.691 18.8005 94.1232C30.9919 123.555 64.7346 137.532 94.1668 125.34Z" fill="#F6433E"/>
<path d="M72.0732 18.7839C101.499 18.7839 125.362 42.647 125.362 72.0732C125.362 101.499 101.353 125.216 72.0732 125.216C42.7934 125.216 18.7839 101.353 18.7839 72.0732C18.7839 42.7934 42.647 18.7839 72.0732 18.7839ZM72.0732 10C37.8158 10 10 37.8158 10 72.0732C10 106.331 37.8158 134.146 72.0732 134.146C106.331 134.146 134.146 106.331 134.146 72.0732C134 37.8158 106.331 10 72.0732 10Z" fill="#1D1D1B"/>
<path d="M106.184 56.2621C96.3754 48.2102 86.8595 41.6222 78.222 36.059C79.2468 27.5679 80.2715 19.0767 81.2963 10.5856C75.294 16.0024 69.1452 22.1511 62.9965 29.0319C51.7237 41.6222 42.9398 54.0661 36.2054 65.046C27.5679 64.1676 19.2231 62.9965 10.8784 61.8253C17.7591 68.8524 25.3719 76.1724 34.0094 83.6387C44.843 93.0083 55.5301 101.06 65.3388 107.795C64.1676 116.286 63.1429 124.777 61.9717 133.122C69.8772 125.216 78.222 116.139 86.7131 105.891C94.6187 96.229 101.353 87.0059 107.209 78.222C115.847 79.2467 124.63 80.4179 133.268 81.4427C125.802 73.5372 116.725 64.8996 106.184 56.2621ZM71.634 85.6883C63.8749 85.6883 57.5797 79.3931 57.5797 71.634C57.5797 63.8748 63.8749 57.5797 71.634 57.5797C79.3932 57.5797 85.6883 63.8748 85.6883 71.634C85.6883 79.3931 79.3932 85.6883 71.634 85.6883Z" fill="#1D1D1B"/>
<path d="M71.1948 67.0956C68.4132 67.0956 66.2172 69.2916 66.2172 72.0732C66.2172 74.8548 68.4132 77.0508 71.1948 77.0508C73.9764 77.0508 76.1724 74.8548 76.1724 72.0732C76.1724 69.2916 73.9764 67.0956 71.1948 67.0956Z" fill="#1D1D1B"/>
</g>
<defs>
<clipPath id="clip0_2_12">
<rect width="124" height="124" fill="white" transform="translate(10 10)"/>
</clipPath>
</defs>
</svg>
