<?xml version="1.0" encoding="utf-8"?><!-- Uploaded to: SVG Repo, www.svgrepo.com, Generator: SVG Repo Mixer Tools -->
<svg version="1.1" id="Uploaded to svgrepo.com" xmlns="http://www.w3.org/2000/svg" xmlns:xlink="http://www.w3.org/1999/xlink" 
	 width="50spx" height="50px" viewBox="0 0 32 32" xml:space="preserve">
<style type="text/css">
	.puchipuchi_een{fill:#111918;}
</style>
<path class="puchipuchi_een" d="M20,28v1c0,1.105-0.895,2-2,2s-2-0.895-2-2v-1H20z M29,26c0,0.55-0.45,1-1,1H4c-0.55,0-1-0.45-1-1
	s0.45-1,1-1c2-3,2-11,2-11c0-4.965,3.622-9.073,8.365-9.855C14.137,3.82,14,3.426,14,3c0-1.103,0.897-2,2-2s2,0.897,2,2
	c0,0.426-0.137,0.82-0.365,1.145C22.378,4.927,26,9.035,26,14c0,0,0,8,2,11C28.55,25,29,25.45,29,26z M17,3c0-0.552-0.448-1-1-1
	s-1,0.448-1,1s0.448,1,1,1S17,3.552,17,3z"/>
</svg>