<?xml version="1.0" encoding="utf-8"?>
<svg version="1.1" xmlns="http://www.w3.org/2000/svg" x="0px" y="0px" viewBox="130.977 0 86.483 87.307" style="enable-background:new 0 0 427.4 84.8;" xmlns:bx="https://boxy-svg.com">
  <defs>
    <bx:guide x="224.98" y="74.576" angle="-180"/>
  </defs>
  <style type="text/css">
	.st0{display:none;}
	.st1{fill:#1D1D1B;}
	.st2{display:none;fill:#1D1D1B;}
	.st3{fill:#F6433E;}
</style>
  <g id="Слой_2" class="st0">
    <image style="display:inline;overflow:visible;" width="1080" height="1080" transform="matrix(0.3747 0 0 0.3747 -68.1403 -164.7018)" href="3CC97B8A.jpg"/>
  </g>
  <g id="Слой_1">
    <g>
      <g/>
      <path class="st2" d="M179.7,42.6c0.5,0,0.9,0.4,0.8,0.8c-0.2,1.9-1.3,3.7-2.9,4.8c-1.8,1.3-4.3,1.5-6.4,0.7 c-1.9-0.8-3.4-2.4-4.1-4.3s-0.8-4-0.2-6c0.7-2.6,2.4-4.8,4.4-6.6c2.2-1.9,4.9-3.4,7.7-3.8c4.9-0.7,10.1,1.8,12.9,5.9 c2.8,4.1,3.5,9.5,2.1,14.3c-1.9,6.9-7.8,12.4-14.7,14.2c-6.2,1.7-13,0.5-18.4-2.8s-8-9-8.4-15.2c-0.5-9.4,3.4-19,10.3-25.4 c11-10.2,28.5-11.5,40.4-2.3c7.6,5.8,12.2,14.9,12.5,24.4c0,0.1,0,0.3,0,0.4c0.2,10.4-3.7,20.8-10.5,28.7 c-5,5.9-12.1,10.6-19.7,12.8c-7.7,2.2-16.1,2.1-23.9,0.2c-4-1-7.8-2.2-11.3-4.5c-3.1-2-5.9-4.4-8.3-7.2c-5-5.5-8.5-12.3-10.1-19.6 c-3.4-16.1,3-33.1,15.8-43.2c1.1-0.9,2.3-1.7,3.5-2.5c5.7-3.8,12.3-5.5,19.1-6.2c7.4-0.8,14.7,1,21.7,3.1c-7.8-0.8-15.7,0-23,2.8 c-13.7,5.3-23.8,17.8-23.9,32.7c0,4.4,0.5,8.8,1.9,13c1.9,5.7,5.5,11,10.6,14.3c3.8,2.5,8.3,3.8,12.9,4.3c7.8,0.9,14.8-0.8,20.7-6 c7.6-6.6,12.7-18,9.9-27.8c-1.7-5.9-5.7-11-11.1-13.8s-13.2-2.5-18.8,0c-6.5,2.9-11.1,9.5-12.1,16.5c-0.4,3.1-0.2,6.4,1.3,9.2 c1.2,2.2,3.4,4.9,5.6,6.1c5.2,2.9,12.1,2.2,16.8-1.5c1.9-1.5,3.9-4.4,4.6-6.7c0.9-2.9,0.3-6.2-1.5-8.7c-1.1-1.5-3.7-2.8-5.7-2.7 c-2.2,0.1-3.9,1.7-5.4,3.4c-0.4,0.5-0.8,1-1,1.6c-1.2,2.9,2,2.6,2,2.6L179.7,42.6z"/>
    </g>
    <g>
      <g>
        <ellipse transform="matrix(0.9239 -0.3827 0.3827 0.9239 -3.1614 70.1398)" class="st3" cx="174.7" cy="43" rx="39.4" ry="39.4"/>
        <g>
          <path class="st1" d="M174.7,6.7c20.1,0,36.4,16.3,36.4,36.4s-16.3,36.4-36.4,36.4S138.4,63.1,138.4,43S154.7,6.7,174.7,6.7 M174.7,0.7c-23.4,0-42.4,19-42.4,42.4c0,23.4,19,42.4,42.4,42.4c23.4,0,42.4-19,42.4-42.4C217.1,19.6,198.1,0.7,174.7,0.7 L174.7,0.7z"/>
        </g>
      </g>
      <g>
        <path class="st1" d="M198.1,32.3c-6.7-5.5-13.2-10-19.1-13.8c0.7-5.8,1.4-11.6,2.1-17.4c-4.1,3.7-8.3,7.9-12.5,12.6 c-7.7,8.6-13.7,17.1-18.3,24.6c-5.7-0.8-11.5-1.5-17.2-2.3c4.7,4.8,9.9,9.8,15.8,14.9c7.4,6.4,14.7,11.9,21.4,16.5 c-0.8,5.8-1.5,11.6-2.3,17.3c5.4-5.4,11.1-11.6,16.9-18.6c5.4-6.6,10-12.9,14-18.9c5.9,0.7,11.9,1.5,17.8,2.2 C211.5,44.1,205.3,38.2,198.1,32.3z M174.4,52.4c-5.3,0-9.6-4.3-9.6-9.6s4.3-9.6,9.6-9.6c5.3,0,9.6,4.3,9.6,9.6 S179.7,52.4,174.4,52.4z"/>
        <path class="st1" d="M174.2,39.6c-1.9,0-3.4,1.5-3.4,3.4s1.5,3.4,3.4,3.4c1.9,0,3.4-1.5,3.4-3.4S176,39.6,174.2,39.6z"/>
      </g>
    </g>
  </g>
</svg>